<svg viewBox="0 0 512 512" xmlns="http://www.w3.org/2000/svg" fill-rule="evenodd" clip-rule="evenodd" stroke-linecap="square" stroke-miterlimit="1.5"><path d="M267.053 466.54L472.286 50.034" fill="none" stroke="#000" stroke-width="86.17" transform="matrix(-.4994 .49095 -.48533 -.49369 455.116 229.674)"/><path d="M182.939 440.019L31.492 357.157" fill="none" stroke="#000" stroke-width="42.93" transform="matrix(-1.3046 -.5379 .5275 -1.27937 290.785 805.566)"/><path d="M177.236 139.633v29.168h40.201v-53.542h-28.106" fill="none" stroke="#000" stroke-width="8.96" transform="matrix(-.87377 .4913 -.37606 -.6688 456.272 65.134)"/><path d="M177.236 139.633v29.168h40.201v-53.542h-28.106" fill="none" stroke="#000" stroke-width="8.96" transform="matrix(.87377 -.4913 .37606 .6688 20.39 97.15)"/><path d="M177.236 139.633v29.168h40.201v-53.542h-28.106" fill="none" stroke="#000" stroke-width="8.96" transform="matrix(-.46962 -.88561 .67787 -.35946 178.425 316.63)"/><path d="M177.236 139.633v29.168h40.201v-53.542h-28.106" fill="none" stroke="#000" stroke-width="8.96" transform="matrix(.46962 .88561 -.67787 .35946 157.164 -119.909)"/></svg>